<svg width="1024" height="1024" xmlns="http://www.w3.org/2000/svg">
 <g>
  <title>Layer 1</title>
  <rect stroke="#000" id="svg_1" height="1024" width="1024" y="0" x="0" fill="#b2dff5"/>
  <path stroke="null" id="svg_8" d="m547.6428,240.24892c-8.6406,0 -17.27123,0 -25.91184,0c-0.17939,118.38719 -0.04983,236.71458 0.99661,354.79282c-20.76933,-14.3711 -53.0794,-18.57679 -77.51625,-12.73666c-24.43685,5.84013 -42.98375,15.99558 -61.26156,33.4163c-18.27781,17.42073 -29.10098,39.62518 -29.64912,65.02874c-0.54813,25.40356 13.50405,46.82069 35.64871,59.02915c22.14465,12.20846 53.83682,15.21822 77.89496,6.67728c24.04818,-8.55091 40.26301,-16.71313 58.12224,-36.55562c17.85923,-19.84249 26.12112,-40.3228 25.66268,-69.01518c-0.45844,-28.69237 -0.08969,-64.52047 0,-94.67786c0.08969,-30.15739 -0.36875,-63.23484 -0.99661,-93.68125c-0.62786,-30.44641 -0.34881,-63.47403 0.99661,-93.68125c11.37131,-0.78732 24.47672,1.88359 34.86138,4.00637c10.3747,2.13274 19.76276,5.29199 29.23054,8.6406c9.45782,3.35857 17.3111,8.06257 25.37367,13.49409c8.06257,5.43152 13.36453,10.80324 19.41394,18.4572c6.03945,7.66392 10.23517,15.94574 13.72331,25.14445c3.4981,9.18874 3.51803,23.15123 6.95633,30.91481c19.72289,-45.99351 -4.42494,-101.18572 -40.11351,-130.30663c-35.68857,-29.12092 -73.78893,-46.28252 -93.4321,-88.94736z"/>
 </g>

</svg>